<svg xmlns="http://www.w3.org/2000/svg" xmlns:xlink="http://www.w3.org/1999/xlink" width="441" zoomAndPan="magnify" viewBox="0 0 330.75 181.5" height="242" preserveAspectRatio="xMidYMid meet" version="1.2"><defs><clipPath id="0d07e88d0b"><path d="M 260.605469 98.488281 L 284.542969 98.488281 L 284.542969 119 L 260.605469 119 Z M 260.605469 98.488281 "/></clipPath></defs><g id="1c8ef5cfa0"><g style="fill:#e26a2c;fill-opacity:1;"><g transform="translate(53.091892, 70.566232)"><path style="stroke:none" d="M 12.296875 -16.96875 L 9.203125 -3.84375 L 9 -3.046875 C 8.445312 -0.847656 7.1875 0.25 5.21875 0.25 C 4.164062 0.25 3.285156 -0.101562 2.578125 -0.8125 C 1.878906 -1.519531 1.53125 -2.394531 1.53125 -3.4375 C 1.53125 -3.632812 1.535156 -3.859375 1.546875 -4.109375 C 1.566406 -4.359375 1.609375 -4.578125 1.671875 -4.765625 L 1.875 -5.5625 L 7.625 -29.96875 C 7.851562 -30.945312 8.285156 -31.710938 8.921875 -32.265625 C 9.566406 -32.828125 10.316406 -33.109375 11.171875 -33.109375 C 12.804688 -33.109375 13.988281 -32.160156 14.71875 -30.265625 L 20.03125 -15.640625 L 25.140625 -29.8125 C 25.566406 -30.96875 26.066406 -31.804688 26.640625 -32.328125 C 27.210938 -32.847656 27.925781 -33.109375 28.78125 -33.109375 C 29.695312 -33.109375 30.472656 -32.820312 31.109375 -32.25 C 31.753906 -31.675781 32.207031 -30.863281 32.46875 -29.8125 L 38.421875 -5.609375 L 38.625 -4.828125 C 38.71875 -4.328125 38.765625 -3.832031 38.765625 -3.34375 C 38.765625 -2.363281 38.40625 -1.519531 37.6875 -0.8125 C 36.96875 -0.101562 36.097656 0.25 35.078125 0.25 C 34.128906 0.25 33.328125 -0.0234375 32.671875 -0.578125 C 32.015625 -1.140625 31.554688 -1.945312 31.296875 -3 L 31.09375 -3.84375 L 27.890625 -16.96875 L 23.515625 -2.90625 L 23.265625 -2.21875 C 23.003906 -1.425781 22.585938 -0.804688 22.015625 -0.359375 C 21.441406 0.078125 20.796875 0.296875 20.078125 0.296875 C 18.429688 0.296875 17.28125 -0.769531 16.625 -2.90625 Z M 12.296875 -16.96875 "/></g></g><g style="fill:#e26a2c;fill-opacity:1;"><g transform="translate(91.507824, 70.566232)"><path style="stroke:none" d="M 23.125 -3.15625 L 22 -5.609375 L 8.8125 -5.609375 L 7.78125 -3.203125 L 7.484375 -2.453125 C 6.660156 -0.679688 5.425781 0.203125 3.78125 0.203125 C 2.769531 0.203125 1.882812 -0.148438 1.125 -0.859375 C 0.375 -1.566406 0 -2.410156 0 -3.390625 C 0 -4.015625 0.179688 -4.722656 0.546875 -5.515625 L 0.890625 -6.25 L 11.765625 -30.609375 C 12.453125 -32.148438 13.644531 -32.921875 15.34375 -32.921875 C 16.132812 -32.921875 16.847656 -32.722656 17.484375 -32.328125 C 18.128906 -31.929688 18.613281 -31.359375 18.9375 -30.609375 L 30.109375 -6.34375 C 30.472656 -5.5625 30.703125 -4.988281 30.796875 -4.625 C 30.898438 -4.257812 30.953125 -3.847656 30.953125 -3.390625 C 30.953125 -2.410156 30.570312 -1.554688 29.8125 -0.828125 C 29.0625 -0.109375 28.175781 0.25 27.15625 0.25 C 25.488281 0.25 24.257812 -0.617188 23.46875 -2.359375 Z M 19.390625 -12.109375 L 15.40625 -21.546875 L 11.515625 -12.109375 Z M 19.390625 -12.109375 "/></g></g><g style="fill:#e26a2c;fill-opacity:1;"><g transform="translate(120.528713, 70.566232)"><path style="stroke:none" d="M 3.59375 -4.71875 L 3.59375 -28.4375 C 3.59375 -31.351562 5.035156 -32.8125 7.921875 -32.8125 L 14.375 -32.8125 C 15.019531 -32.8125 15.738281 -32.753906 16.53125 -32.640625 C 17.320312 -32.523438 18.109375 -32.390625 18.890625 -32.234375 C 21.847656 -31.535156 24.144531 -29.859375 25.78125 -27.203125 C 26.375 -26.222656 26.832031 -25.175781 27.15625 -24.0625 C 27.488281 -22.945312 27.65625 -21.832031 27.65625 -20.71875 C 27.65625 -19.601562 27.5 -18.507812 27.1875 -17.4375 C 26.875 -16.375 26.421875 -15.375 25.828125 -14.4375 C 25.242188 -13.5 24.539062 -12.65625 23.71875 -11.90625 C 22.894531 -11.15625 21.972656 -10.53125 20.953125 -10.03125 C 20.066406 -9.601562 19.179688 -9.304688 18.296875 -9.140625 C 17.410156 -8.984375 16.234375 -8.90625 14.765625 -8.90625 L 11.125 -8.90625 L 11.125 -3.890625 C 11.09375 -2.609375 10.738281 -1.582031 10.0625 -0.8125 C 9.382812 -0.0390625 8.472656 0.34375 7.328125 0.34375 C 6.179688 0.34375 5.269531 -0.046875 4.59375 -0.828125 C 3.925781 -1.617188 3.59375 -2.640625 3.59375 -3.890625 Z M 14.078125 -15.796875 C 15.191406 -15.796875 15.984375 -15.835938 16.453125 -15.921875 C 16.929688 -16.003906 17.398438 -16.175781 17.859375 -16.4375 C 18.617188 -16.863281 19.226562 -17.460938 19.6875 -18.234375 C 20.144531 -19.003906 20.375 -19.816406 20.375 -20.671875 C 20.375 -21.585938 20.109375 -22.460938 19.578125 -23.296875 C 19.054688 -24.128906 18.382812 -24.742188 17.5625 -25.140625 C 16.84375 -25.472656 15.679688 -25.640625 14.078125 -25.640625 L 11.125 -25.640625 L 11.125 -15.796875 Z M 14.078125 -15.796875 "/></g></g><g style="fill:#e26a2c;fill-opacity:1;"><g transform="translate(146.991788, 70.566232)"><path style="stroke:none" d="M 7.96875 0 C 5.050781 -0.0625 3.59375 -1.519531 3.59375 -4.375 L 3.59375 -28.9375 C 3.625 -30.207031 3.972656 -31.21875 4.640625 -31.96875 C 5.316406 -32.726562 6.226562 -33.109375 7.375 -33.109375 C 8.53125 -33.109375 9.441406 -32.722656 10.109375 -31.953125 C 10.785156 -31.179688 11.125 -30.175781 11.125 -28.9375 L 11.125 -6.890625 L 20.90625 -6.890625 C 22.0625 -6.859375 22.984375 -6.535156 23.671875 -5.921875 C 24.359375 -5.316406 24.703125 -4.488281 24.703125 -3.4375 C 24.703125 -2.394531 24.359375 -1.5625 23.671875 -0.9375 C 22.984375 -0.3125 22.0625 0 20.90625 0 Z M 7.96875 0 "/></g></g><g style="fill:#e26a2c;fill-opacity:1;"><g transform="translate(170.503539, 70.566232)"><path style="stroke:none" d="M 7.96875 0 C 5.050781 -0.0625 3.59375 -1.519531 3.59375 -4.375 L 3.59375 -28.4375 C 3.65625 -31.351562 5.113281 -32.8125 7.96875 -32.8125 L 21.65625 -32.8125 C 22.800781 -32.78125 23.71875 -32.460938 24.40625 -31.859375 C 25.09375 -31.253906 25.4375 -30.425781 25.4375 -29.375 C 25.4375 -28.320312 25.09375 -27.484375 24.40625 -26.859375 C 23.71875 -26.242188 22.800781 -25.9375 21.65625 -25.9375 L 11.125 -25.9375 L 11.125 -19.828125 L 19.484375 -19.828125 C 20.535156 -19.796875 21.378906 -19.507812 22.015625 -18.96875 C 22.660156 -18.425781 22.984375 -17.679688 22.984375 -16.734375 C 22.984375 -15.773438 22.660156 -15.007812 22.015625 -14.4375 C 21.378906 -13.863281 20.535156 -13.578125 19.484375 -13.578125 L 11.125 -13.578125 L 11.125 -6.890625 L 21.890625 -6.890625 C 23.046875 -6.859375 23.972656 -6.535156 24.671875 -5.921875 C 25.378906 -5.316406 25.734375 -4.488281 25.734375 -3.4375 C 25.734375 -2.394531 25.378906 -1.5625 24.671875 -0.9375 C 23.972656 -0.3125 23.046875 0 21.890625 0 Z M 7.96875 0 "/></g></g><g style="fill:#e26a2c;fill-opacity:1;"><g transform="translate(49.913149, 110.207027)"><path style="stroke:none" d="M 19.28125 -12.203125 C 18.101562 -12.234375 17.171875 -12.550781 16.484375 -13.15625 C 15.796875 -13.769531 15.453125 -14.597656 15.453125 -15.640625 C 15.453125 -16.660156 15.800781 -17.488281 16.5 -18.125 C 17.207031 -18.769531 18.132812 -19.09375 19.28125 -19.09375 L 27.546875 -19.09375 C 30.472656 -19.03125 31.9375 -17.570312 31.9375 -14.71875 L 31.9375 -9.75 C 31.9375 -8.695312 31.765625 -7.6875 31.421875 -6.71875 C 31.078125 -5.75 30.578125 -4.890625 29.921875 -4.140625 C 29.328125 -3.441406 28.609375 -2.8125 27.765625 -2.25 C 26.929688 -1.695312 26.015625 -1.21875 25.015625 -0.8125 C 24.015625 -0.40625 22.957031 -0.0859375 21.84375 0.140625 C 20.726562 0.367188 19.628906 0.484375 18.546875 0.484375 C 16.222656 0.484375 14.019531 0.0351562 11.9375 -0.859375 C 9.851562 -1.765625 8.039062 -2.976562 6.5 -4.5 C 4.957031 -6.03125 3.734375 -7.816406 2.828125 -9.859375 C 1.921875 -11.910156 1.46875 -14.101562 1.46875 -16.4375 C 1.46875 -18.757812 1.910156 -20.945312 2.796875 -23 C 3.691406 -25.050781 4.910156 -26.835938 6.453125 -28.359375 C 7.992188 -29.890625 9.785156 -31.097656 11.828125 -31.984375 C 13.878906 -32.867188 16.085938 -33.3125 18.453125 -33.3125 C 20.023438 -33.3125 21.582031 -33.082031 23.125 -32.625 C 24.664062 -32.164062 26.125 -31.507812 27.5 -30.65625 C 28.414062 -30.0625 29.0625 -29.476562 29.4375 -28.90625 C 29.820312 -28.332031 30.015625 -27.671875 30.015625 -26.921875 C 30.015625 -25.867188 29.660156 -24.988281 28.953125 -24.28125 C 28.242188 -23.570312 27.367188 -23.21875 26.328125 -23.21875 C 26.066406 -23.21875 25.859375 -23.222656 25.703125 -23.234375 C 25.554688 -23.253906 25.394531 -23.304688 25.21875 -23.390625 C 25.039062 -23.472656 24.800781 -23.597656 24.5 -23.765625 C 24.207031 -23.929688 23.816406 -24.175781 23.328125 -24.5 C 22.671875 -24.957031 21.914062 -25.3125 21.0625 -25.5625 C 20.207031 -25.8125 19.351562 -25.9375 18.5 -25.9375 C 17.1875 -25.9375 15.957031 -25.679688 14.8125 -25.171875 C 13.664062 -24.660156 12.65625 -23.976562 11.78125 -23.125 C 10.914062 -22.269531 10.234375 -21.257812 9.734375 -20.09375 C 9.242188 -18.9375 9 -17.71875 9 -16.4375 C 9 -15.09375 9.257812 -13.828125 9.78125 -12.640625 C 10.3125 -11.460938 11.035156 -10.4375 11.953125 -9.5625 C 12.867188 -8.695312 13.957031 -8.019531 15.21875 -7.53125 C 16.488281 -7.039062 17.84375 -6.796875 19.28125 -6.796875 C 20.53125 -6.796875 21.582031 -6.988281 22.4375 -7.375 C 23.289062 -7.769531 23.894531 -8.328125 24.25 -9.046875 C 24.519531 -9.578125 24.65625 -10.445312 24.65625 -11.65625 L 24.65625 -12.203125 Z M 19.28125 -12.203125 "/></g></g><g style="fill:#e26a2c;fill-opacity:1;"><g transform="translate(81.93455, 110.207027)"><path style="stroke:none" d="M 11.125 -9.390625 L 11.125 -3.890625 C 11.125 -2.609375 10.785156 -1.582031 10.109375 -0.8125 C 9.441406 -0.0390625 8.53125 0.34375 7.375 0.34375 C 6.226562 0.34375 5.3125 -0.046875 4.625 -0.828125 C 3.9375 -1.617188 3.59375 -2.640625 3.59375 -3.890625 L 3.59375 -28.4375 C 3.65625 -31.351562 5.113281 -32.8125 7.96875 -32.8125 L 13.921875 -32.8125 C 15.859375 -32.8125 17.46875 -32.65625 18.75 -32.34375 C 20.03125 -32.039062 21.191406 -31.539062 22.234375 -30.84375 C 23.941406 -29.726562 25.285156 -28.273438 26.265625 -26.484375 C 27.253906 -24.703125 27.75 -22.828125 27.75 -20.859375 C 27.75 -18.566406 27.097656 -16.582031 25.796875 -14.90625 C 24.503906 -13.238281 22.660156 -11.976562 20.265625 -11.125 L 25.875 -7.03125 C 27.257812 -5.988281 27.953125 -4.828125 27.953125 -3.546875 C 27.953125 -2.492188 27.597656 -1.585938 26.890625 -0.828125 C 26.179688 -0.078125 25.300781 0.296875 24.25 0.296875 C 23.4375 0.296875 22.570312 -0.0625 21.65625 -0.78125 Z M 13.96875 -15.890625 C 15.082031 -15.890625 15.941406 -15.945312 16.546875 -16.0625 C 17.160156 -16.175781 17.695312 -16.363281 18.15625 -16.625 C 18.875 -17.082031 19.4375 -17.679688 19.84375 -18.421875 C 20.257812 -19.160156 20.46875 -19.957031 20.46875 -20.8125 C 20.46875 -21.757812 20.210938 -22.628906 19.703125 -23.421875 C 19.191406 -24.210938 18.507812 -24.816406 17.65625 -25.234375 C 17.425781 -25.335938 17.207031 -25.421875 17 -25.484375 C 16.789062 -25.546875 16.550781 -25.59375 16.28125 -25.625 C 16.019531 -25.664062 15.691406 -25.691406 15.296875 -25.703125 C 14.910156 -25.722656 14.421875 -25.734375 13.828125 -25.734375 L 11.125 -25.734375 L 11.125 -15.890625 Z M 13.96875 -15.890625 "/></g></g><g style="fill:#e26a2c;fill-opacity:1;"><g transform="translate(109.332206, 110.207027)"><path style="stroke:none" d="M 18.359375 -33.3125 C 20.515625 -33.3125 22.640625 -32.867188 24.734375 -31.984375 C 26.835938 -31.097656 28.726562 -29.851562 30.40625 -28.25 C 32.007812 -26.707031 33.238281 -24.910156 34.09375 -22.859375 C 34.945312 -20.804688 35.375 -18.628906 35.375 -16.328125 C 35.375 -14.003906 34.929688 -11.820312 34.046875 -9.78125 C 33.160156 -7.75 31.945312 -5.972656 30.40625 -4.453125 C 28.863281 -2.929688 27.066406 -1.726562 25.015625 -0.84375 C 22.960938 0.0390625 20.773438 0.484375 18.453125 0.484375 C 16.085938 0.484375 13.878906 0.0390625 11.828125 -0.84375 C 9.785156 -1.726562 7.992188 -2.929688 6.453125 -4.453125 C 4.910156 -5.972656 3.691406 -7.757812 2.796875 -9.8125 C 1.910156 -11.863281 1.46875 -14.054688 1.46875 -16.390625 C 1.46875 -18.710938 1.910156 -20.90625 2.796875 -22.96875 C 3.691406 -25.039062 4.898438 -26.835938 6.421875 -28.359375 C 7.941406 -29.890625 9.726562 -31.097656 11.78125 -31.984375 C 13.832031 -32.867188 16.023438 -33.3125 18.359375 -33.3125 Z M 18.453125 -25.828125 C 17.171875 -25.828125 15.945312 -25.570312 14.78125 -25.0625 C 13.613281 -24.5625 12.601562 -23.882812 11.75 -23.03125 C 10.90625 -22.175781 10.226562 -21.164062 9.71875 -20 C 9.207031 -18.832031 8.953125 -17.609375 8.953125 -16.328125 C 8.953125 -15.054688 9.195312 -13.84375 9.6875 -12.6875 C 10.1875 -11.539062 10.867188 -10.539062 11.734375 -9.6875 C 12.597656 -8.832031 13.601562 -8.160156 14.75 -7.671875 C 15.90625 -7.179688 17.140625 -6.9375 18.453125 -6.9375 C 19.765625 -6.9375 20.984375 -7.179688 22.109375 -7.671875 C 23.242188 -8.160156 24.238281 -8.832031 25.09375 -9.6875 C 25.945312 -10.539062 26.617188 -11.535156 27.109375 -12.671875 C 27.597656 -13.804688 27.84375 -15.023438 27.84375 -16.328125 C 27.84375 -17.640625 27.597656 -18.867188 27.109375 -20.015625 C 26.617188 -21.171875 25.945312 -22.175781 25.09375 -23.03125 C 24.238281 -23.882812 23.238281 -24.5625 22.09375 -25.0625 C 20.945312 -25.570312 19.734375 -25.828125 18.453125 -25.828125 Z M 18.453125 -25.828125 "/></g></g><g style="fill:#e26a2c;fill-opacity:1;"><g transform="translate(144.30493, 110.207027)"><path style="stroke:none" d="M 1.46875 -26.71875 L 1.125 -27.453125 C 0.800781 -28.140625 0.640625 -28.847656 0.640625 -29.578125 C 0.640625 -30.066406 0.742188 -30.523438 0.953125 -30.953125 C 1.171875 -31.378906 1.453125 -31.753906 1.796875 -32.078125 C 2.140625 -32.410156 2.539062 -32.671875 3 -32.859375 C 3.457031 -33.054688 3.929688 -33.15625 4.421875 -33.15625 C 5.378906 -33.15625 6.144531 -32.898438 6.71875 -32.390625 C 7.289062 -31.890625 7.835938 -30.96875 8.359375 -29.625 L 15.59375 -11.5625 L 22.921875 -29.671875 C 23.453125 -31.015625 24.003906 -31.929688 24.578125 -32.421875 C 25.148438 -32.910156 25.910156 -33.15625 26.859375 -33.15625 C 27.359375 -33.15625 27.828125 -33.054688 28.265625 -32.859375 C 28.710938 -32.671875 29.109375 -32.410156 29.453125 -32.078125 C 29.796875 -31.753906 30.066406 -31.378906 30.265625 -30.953125 C 30.460938 -30.523438 30.5625 -30.066406 30.5625 -29.578125 C 30.5625 -28.878906 30.410156 -28.1875 30.109375 -27.5 L 29.765625 -26.765625 L 19.28125 -2.703125 C 18.4375 -0.804688 17.222656 0.140625 15.640625 0.140625 C 13.941406 0.140625 12.679688 -0.804688 11.859375 -2.703125 Z M 1.46875 -26.71875 "/></g></g><g style="fill:#e26a2c;fill-opacity:1;"><g transform="translate(173.670139, 110.207027)"><path style="stroke:none" d="M 7.96875 0 C 5.050781 -0.0625 3.59375 -1.519531 3.59375 -4.375 L 3.59375 -28.4375 C 3.65625 -31.351562 5.113281 -32.8125 7.96875 -32.8125 L 21.65625 -32.8125 C 22.800781 -32.78125 23.71875 -32.460938 24.40625 -31.859375 C 25.09375 -31.253906 25.4375 -30.425781 25.4375 -29.375 C 25.4375 -28.320312 25.09375 -27.484375 24.40625 -26.859375 C 23.71875 -26.242188 22.800781 -25.9375 21.65625 -25.9375 L 11.125 -25.9375 L 11.125 -19.828125 L 19.484375 -19.828125 C 20.535156 -19.796875 21.378906 -19.507812 22.015625 -18.96875 C 22.660156 -18.425781 22.984375 -17.679688 22.984375 -16.734375 C 22.984375 -15.773438 22.660156 -15.007812 22.015625 -14.4375 C 21.378906 -13.863281 20.535156 -13.578125 19.484375 -13.578125 L 11.125 -13.578125 L 11.125 -6.890625 L 21.890625 -6.890625 C 23.046875 -6.859375 23.972656 -6.535156 24.671875 -5.921875 C 25.378906 -5.316406 25.734375 -4.488281 25.734375 -3.4375 C 25.734375 -2.394531 25.378906 -1.5625 24.671875 -0.9375 C 23.972656 -0.3125 23.046875 0 21.890625 0 Z M 7.96875 0 "/></g></g><g style="fill:#e26a2c;fill-opacity:1;"><g transform="translate(36.976133, 149.847822)"><path style="stroke:none" d="M 25.578125 -10.234375 C 26.398438 -11.023438 27.335938 -11.421875 28.390625 -11.421875 C 29.410156 -11.421875 30.28125 -11.054688 31 -10.328125 C 31.71875 -9.609375 32.078125 -8.738281 32.078125 -7.71875 C 32.078125 -6.675781 31.488281 -5.5625 30.3125 -4.375 C 28.800781 -2.863281 26.988281 -1.675781 24.875 -0.8125 C 22.757812 0.0507812 20.617188 0.484375 18.453125 0.484375 C 16.117188 0.484375 13.925781 0.0351562 11.875 -0.859375 C 9.832031 -1.765625 8.039062 -2.976562 6.5 -4.5 C 4.957031 -6.03125 3.734375 -7.816406 2.828125 -9.859375 C 1.921875 -11.910156 1.46875 -14.101562 1.46875 -16.4375 C 1.46875 -18.757812 1.910156 -20.945312 2.796875 -23 C 3.691406 -25.050781 4.910156 -26.835938 6.453125 -28.359375 C 7.992188 -29.890625 9.785156 -31.097656 11.828125 -31.984375 C 13.878906 -32.867188 16.070312 -33.3125 18.40625 -33.3125 C 22.34375 -33.3125 25.914062 -32 29.125 -29.375 C 30.082031 -28.582031 30.765625 -27.875 31.171875 -27.25 C 31.578125 -26.632812 31.78125 -25.945312 31.78125 -25.1875 C 31.78125 -24.175781 31.425781 -23.316406 30.71875 -22.609375 C 30.019531 -21.898438 29.144531 -21.546875 28.09375 -21.546875 C 27.144531 -21.546875 26.226562 -21.941406 25.34375 -22.734375 L 24.546875 -23.46875 C 23.734375 -24.226562 22.785156 -24.8125 21.703125 -25.21875 C 20.617188 -25.625 19.503906 -25.828125 18.359375 -25.828125 C 17.078125 -25.828125 15.859375 -25.582031 14.703125 -25.09375 C 13.554688 -24.601562 12.566406 -23.921875 11.734375 -23.046875 C 10.898438 -22.179688 10.234375 -21.171875 9.734375 -20.015625 C 9.242188 -18.867188 9 -17.660156 9 -16.390625 C 9 -15.109375 9.242188 -13.890625 9.734375 -12.734375 C 10.234375 -11.585938 10.914062 -10.585938 11.78125 -9.734375 C 12.65625 -8.890625 13.664062 -8.21875 14.8125 -7.71875 C 15.957031 -7.226562 17.171875 -6.984375 18.453125 -6.984375 C 19.503906 -6.984375 20.566406 -7.171875 21.640625 -7.546875 C 22.722656 -7.929688 23.59375 -8.414062 24.25 -9 Z M 25.578125 -10.234375 "/></g></g><g style="fill:#e26a2c;fill-opacity:1;"><g transform="translate(67.816997, 149.847822)"><path style="stroke:none" d="M 18.359375 -33.3125 C 20.515625 -33.3125 22.640625 -32.867188 24.734375 -31.984375 C 26.835938 -31.097656 28.726562 -29.851562 30.40625 -28.25 C 32.007812 -26.707031 33.238281 -24.910156 34.09375 -22.859375 C 34.945312 -20.804688 35.375 -18.628906 35.375 -16.328125 C 35.375 -14.003906 34.929688 -11.820312 34.046875 -9.78125 C 33.160156 -7.75 31.945312 -5.972656 30.40625 -4.453125 C 28.863281 -2.929688 27.066406 -1.726562 25.015625 -0.84375 C 22.960938 0.0390625 20.773438 0.484375 18.453125 0.484375 C 16.085938 0.484375 13.878906 0.0390625 11.828125 -0.84375 C 9.785156 -1.726562 7.992188 -2.929688 6.453125 -4.453125 C 4.910156 -5.972656 3.691406 -7.757812 2.796875 -9.8125 C 1.910156 -11.863281 1.46875 -14.054688 1.46875 -16.390625 C 1.46875 -18.710938 1.910156 -20.90625 2.796875 -22.96875 C 3.691406 -25.039062 4.898438 -26.835938 6.421875 -28.359375 C 7.941406 -29.890625 9.726562 -31.097656 11.78125 -31.984375 C 13.832031 -32.867188 16.023438 -33.3125 18.359375 -33.3125 Z M 18.453125 -25.828125 C 17.171875 -25.828125 15.945312 -25.570312 14.78125 -25.0625 C 13.613281 -24.5625 12.601562 -23.882812 11.75 -23.03125 C 10.90625 -22.175781 10.226562 -21.164062 9.71875 -20 C 9.207031 -18.832031 8.953125 -17.609375 8.953125 -16.328125 C 8.953125 -15.054688 9.195312 -13.84375 9.6875 -12.6875 C 10.1875 -11.539062 10.867188 -10.539062 11.734375 -9.6875 C 12.597656 -8.832031 13.601562 -8.160156 14.75 -7.671875 C 15.90625 -7.179688 17.140625 -6.9375 18.453125 -6.9375 C 19.765625 -6.9375 20.984375 -7.179688 22.109375 -7.671875 C 23.242188 -8.160156 24.238281 -8.832031 25.09375 -9.6875 C 25.945312 -10.539062 26.617188 -11.535156 27.109375 -12.671875 C 27.597656 -13.804688 27.84375 -15.023438 27.84375 -16.328125 C 27.84375 -17.640625 27.597656 -18.867188 27.109375 -20.015625 C 26.617188 -21.171875 25.945312 -22.175781 25.09375 -23.03125 C 24.238281 -23.882812 23.238281 -24.5625 22.09375 -25.0625 C 20.945312 -25.570312 19.734375 -25.828125 18.453125 -25.828125 Z M 18.453125 -25.828125 "/></g></g><g style="fill:#e26a2c;fill-opacity:1;"><g transform="translate(102.789722, 149.847822)"><path style="stroke:none" d="M 11.125 -9.390625 L 11.125 -3.890625 C 11.125 -2.609375 10.785156 -1.582031 10.109375 -0.8125 C 9.441406 -0.0390625 8.53125 0.34375 7.375 0.34375 C 6.226562 0.34375 5.3125 -0.046875 4.625 -0.828125 C 3.9375 -1.617188 3.59375 -2.640625 3.59375 -3.890625 L 3.59375 -28.4375 C 3.65625 -31.351562 5.113281 -32.8125 7.96875 -32.8125 L 13.921875 -32.8125 C 15.859375 -32.8125 17.46875 -32.65625 18.75 -32.34375 C 20.03125 -32.039062 21.191406 -31.539062 22.234375 -30.84375 C 23.941406 -29.726562 25.285156 -28.273438 26.265625 -26.484375 C 27.253906 -24.703125 27.75 -22.828125 27.75 -20.859375 C 27.75 -18.566406 27.097656 -16.582031 25.796875 -14.90625 C 24.503906 -13.238281 22.660156 -11.976562 20.265625 -11.125 L 25.875 -7.03125 C 27.257812 -5.988281 27.953125 -4.828125 27.953125 -3.546875 C 27.953125 -2.492188 27.597656 -1.585938 26.890625 -0.828125 C 26.179688 -0.078125 25.300781 0.296875 24.25 0.296875 C 23.4375 0.296875 22.570312 -0.0625 21.65625 -0.78125 Z M 13.96875 -15.890625 C 15.082031 -15.890625 15.941406 -15.945312 16.546875 -16.0625 C 17.160156 -16.175781 17.695312 -16.363281 18.15625 -16.625 C 18.875 -17.082031 19.4375 -17.679688 19.84375 -18.421875 C 20.257812 -19.160156 20.46875 -19.957031 20.46875 -20.8125 C 20.46875 -21.757812 20.210938 -22.628906 19.703125 -23.421875 C 19.191406 -24.210938 18.507812 -24.816406 17.65625 -25.234375 C 17.425781 -25.335938 17.207031 -25.421875 17 -25.484375 C 16.789062 -25.546875 16.550781 -25.59375 16.28125 -25.625 C 16.019531 -25.664062 15.691406 -25.691406 15.296875 -25.703125 C 14.910156 -25.722656 14.421875 -25.734375 13.828125 -25.734375 L 11.125 -25.734375 L 11.125 -15.890625 Z M 13.96875 -15.890625 "/></g></g><g style="fill:#e26a2c;fill-opacity:1;"><g transform="translate(130.187378, 149.847822)"><path style="stroke:none" d="M 19.28125 -12.203125 C 18.101562 -12.234375 17.171875 -12.550781 16.484375 -13.15625 C 15.796875 -13.769531 15.453125 -14.597656 15.453125 -15.640625 C 15.453125 -16.660156 15.800781 -17.488281 16.5 -18.125 C 17.207031 -18.769531 18.132812 -19.09375 19.28125 -19.09375 L 27.546875 -19.09375 C 30.472656 -19.03125 31.9375 -17.570312 31.9375 -14.71875 L 31.9375 -9.75 C 31.9375 -8.695312 31.765625 -7.6875 31.421875 -6.71875 C 31.078125 -5.75 30.578125 -4.890625 29.921875 -4.140625 C 29.328125 -3.441406 28.609375 -2.8125 27.765625 -2.25 C 26.929688 -1.695312 26.015625 -1.21875 25.015625 -0.8125 C 24.015625 -0.40625 22.957031 -0.0859375 21.84375 0.140625 C 20.726562 0.367188 19.628906 0.484375 18.546875 0.484375 C 16.222656 0.484375 14.019531 0.0351562 11.9375 -0.859375 C 9.851562 -1.765625 8.039062 -2.976562 6.5 -4.5 C 4.957031 -6.03125 3.734375 -7.816406 2.828125 -9.859375 C 1.921875 -11.910156 1.46875 -14.101562 1.46875 -16.4375 C 1.46875 -18.757812 1.910156 -20.945312 2.796875 -23 C 3.691406 -25.050781 4.910156 -26.835938 6.453125 -28.359375 C 7.992188 -29.890625 9.785156 -31.097656 11.828125 -31.984375 C 13.878906 -32.867188 16.085938 -33.3125 18.453125 -33.3125 C 20.023438 -33.3125 21.582031 -33.082031 23.125 -32.625 C 24.664062 -32.164062 26.125 -31.507812 27.5 -30.65625 C 28.414062 -30.0625 29.0625 -29.476562 29.4375 -28.90625 C 29.820312 -28.332031 30.015625 -27.671875 30.015625 -26.921875 C 30.015625 -25.867188 29.660156 -24.988281 28.953125 -24.28125 C 28.242188 -23.570312 27.367188 -23.21875 26.328125 -23.21875 C 26.066406 -23.21875 25.859375 -23.222656 25.703125 -23.234375 C 25.554688 -23.253906 25.394531 -23.304688 25.21875 -23.390625 C 25.039062 -23.472656 24.800781 -23.597656 24.5 -23.765625 C 24.207031 -23.929688 23.816406 -24.175781 23.328125 -24.5 C 22.671875 -24.957031 21.914062 -25.3125 21.0625 -25.5625 C 20.207031 -25.8125 19.351562 -25.9375 18.5 -25.9375 C 17.1875 -25.9375 15.957031 -25.679688 14.8125 -25.171875 C 13.664062 -24.660156 12.65625 -23.976562 11.78125 -23.125 C 10.914062 -22.269531 10.234375 -21.257812 9.734375 -20.09375 C 9.242188 -18.9375 9 -17.71875 9 -16.4375 C 9 -15.09375 9.257812 -13.828125 9.78125 -12.640625 C 10.3125 -11.460938 11.035156 -10.4375 11.953125 -9.5625 C 12.867188 -8.695312 13.957031 -8.019531 15.21875 -7.53125 C 16.488281 -7.039062 17.84375 -6.796875 19.28125 -6.796875 C 20.53125 -6.796875 21.582031 -6.988281 22.4375 -7.375 C 23.289062 -7.769531 23.894531 -8.328125 24.25 -9.046875 C 24.519531 -9.578125 24.65625 -10.445312 24.65625 -11.65625 L 24.65625 -12.203125 Z M 19.28125 -12.203125 "/></g></g><g style="fill:#e26a2c;fill-opacity:1;"><g transform="translate(162.208778, 149.847822)"><path style="stroke:none" d="M 3.59375 -4.71875 L 3.59375 -28.9375 C 3.625 -30.207031 3.972656 -31.21875 4.640625 -31.96875 C 5.316406 -32.726562 6.226562 -33.109375 7.375 -33.109375 C 8.53125 -33.109375 9.441406 -32.722656 10.109375 -31.953125 C 10.785156 -31.179688 11.125 -30.175781 11.125 -28.9375 L 11.125 -3.890625 C 11.125 -2.609375 10.785156 -1.582031 10.109375 -0.8125 C 9.441406 -0.0390625 8.53125 0.34375 7.375 0.34375 C 6.226562 0.34375 5.3125 -0.046875 4.625 -0.828125 C 3.9375 -1.617188 3.59375 -2.640625 3.59375 -3.890625 Z M 3.59375 -4.71875 "/></g></g><g style="fill:#e26a2c;fill-opacity:1;"><g transform="translate(175.095773, 149.847822)"><path style="stroke:none" d="M 10.875 -14.71875 C 8.382812 -15.4375 6.515625 -16.238281 5.265625 -17.125 C 4.273438 -17.78125 3.519531 -18.671875 3 -19.796875 C 2.476562 -20.929688 2.21875 -22.222656 2.21875 -23.671875 C 2.21875 -25.078125 2.492188 -26.367188 3.046875 -27.546875 C 3.609375 -28.734375 4.390625 -29.753906 5.390625 -30.609375 C 6.390625 -31.460938 7.59375 -32.125 9 -32.59375 C 10.414062 -33.070312 11.957031 -33.3125 13.625 -33.3125 C 15.039062 -33.3125 16.378906 -33.144531 17.640625 -32.8125 C 18.898438 -32.488281 20.003906 -32.039062 20.953125 -31.46875 C 21.910156 -30.894531 22.660156 -30.222656 23.203125 -29.453125 C 23.742188 -28.679688 24.015625 -27.851562 24.015625 -26.96875 C 24.015625 -26.007812 23.691406 -25.1875 23.046875 -24.5 C 22.410156 -23.8125 21.632812 -23.46875 20.71875 -23.46875 C 20.0625 -23.46875 19.4375 -23.679688 18.84375 -24.109375 C 18.78125 -24.140625 18.597656 -24.273438 18.296875 -24.515625 C 18.003906 -24.765625 17.628906 -25.070312 17.171875 -25.4375 C 15.859375 -26.488281 14.578125 -27.015625 13.328125 -27.015625 C 12.316406 -27.015625 11.445312 -26.71875 10.71875 -26.125 C 10 -25.53125 9.640625 -24.828125 9.640625 -24.015625 C 9.640625 -23.191406 9.925781 -22.550781 10.5 -22.09375 C 11.070312 -21.632812 12.113281 -21.222656 13.625 -20.859375 C 15.070312 -20.503906 16.316406 -20.148438 17.359375 -19.796875 C 18.410156 -19.453125 19.347656 -19.085938 20.171875 -18.703125 C 21.910156 -17.878906 23.226562 -16.742188 24.125 -15.296875 C 25.03125 -13.859375 25.484375 -12.1875 25.484375 -10.28125 C 25.484375 -8.675781 25.195312 -7.21875 24.625 -5.90625 C 24.050781 -4.59375 23.226562 -3.457031 22.15625 -2.5 C 21.09375 -1.550781 19.832031 -0.816406 18.375 -0.296875 C 16.914062 0.222656 15.300781 0.484375 13.53125 0.484375 C 11.925781 0.484375 10.390625 0.273438 8.921875 -0.140625 C 7.460938 -0.566406 6.179688 -1.148438 5.078125 -1.890625 C 3.984375 -2.628906 3.109375 -3.484375 2.453125 -4.453125 C 1.796875 -5.421875 1.46875 -6.429688 1.46875 -7.484375 C 1.46875 -7.972656 1.554688 -8.429688 1.734375 -8.859375 C 1.921875 -9.285156 2.171875 -9.660156 2.484375 -9.984375 C 2.796875 -10.316406 3.15625 -10.582031 3.5625 -10.78125 C 3.976562 -10.976562 4.414062 -11.078125 4.875 -11.078125 C 5.5625 -11.078125 6.195312 -10.9375 6.78125 -10.65625 C 7.375 -10.375 8.082031 -9.875 8.90625 -9.15625 C 9.851562 -8.269531 10.738281 -7.628906 11.5625 -7.234375 C 12.382812 -6.835938 13.222656 -6.640625 14.078125 -6.640625 C 15.191406 -6.640625 16.113281 -6.972656 16.84375 -7.640625 C 17.582031 -8.316406 17.953125 -9.164062 17.953125 -10.1875 C 17.953125 -11.039062 17.648438 -11.753906 17.046875 -12.328125 C 16.441406 -12.898438 15.46875 -13.382812 14.125 -13.78125 Z M 10.875 -14.71875 "/></g></g><g style="fill:#e26a2c;fill-opacity:1;"><g transform="translate(200.190565, 149.847822)"><path style="stroke:none" d=""/></g></g><path style=" stroke:none;fill-rule:evenodd;fill:#f3e5d6;fill-opacity:1;" d="M 218.253906 102.605469 C 217.890625 106.683594 282.957031 69.839844 282.957031 69.839844 C 282.957031 69.839844 287.417969 65.902344 287.449219 65.128906 C 287.480469 64.355469 286.0625 63.492188 285.195312 61.535156 C 284.25 59.402344 283.867188 57.960938 283.976562 56.324219 C 283.976562 56.324219 288.332031 53.695312 291.949219 49.59375 C 296.027344 44.976562 300.371094 36.058594 301.246094 27.769531 C 302.289062 17.929688 301.753906 16.238281 293.328125 16.164062 C 285.371094 16.09375 274.410156 19.433594 265.34375 26.027344 C 265.34375 26.027344 261.265625 23.582031 254.035156 21.800781 C 247.867188 20.28125 240.566406 20.296875 240.566406 20.296875 C 232.300781 9.847656 230.820312 5.800781 226.210938 2.445312 C 223.886719 0.753906 219.753906 -0.0117188 215.816406 8.210938 C 213.179688 13.714844 211.386719 19.246094 211.292969 26.023438 C 211.183594 33.488281 212.613281 40.417969 212.613281 40.417969 C 210.804688 43.425781 204.511719 48.554688 204.238281 49.277344 C 203.964844 50 205.804688 55.949219 205.804688 55.949219 C 205.804688 55.949219 204.953125 55.761719 203.9375 56.3125 C 202.917969 56.859375 204.117188 60.1875 204.984375 62.042969 C 207.0625 66.5 210.863281 72.078125 215.738281 77.691406 C 219.386719 81.894531 219.640625 87.160156 218.253906 102.605469 Z M 218.253906 102.605469 "/><path style=" stroke:none;fill-rule:evenodd;fill:#fa992e;fill-opacity:1;" d="M 257.671875 83.917969 C 257.671875 83.917969 238.859375 86.945312 221.472656 76.945312 C 221.324219 76.859375 221.273438 76.671875 221.359375 76.523438 C 221.441406 76.378906 221.628906 76.328125 221.777344 76.410156 C 238.96875 86.300781 257.574219 83.308594 257.574219 83.308594 C 257.742188 83.28125 257.902344 83.398438 257.929688 83.5625 C 257.953125 83.730469 257.839844 83.890625 257.671875 83.917969 Z M 257.671875 83.917969 "/><path style=" stroke:none;fill-rule:evenodd;fill:#fa992e;fill-opacity:1;" d="M 293.328125 16.164062 L 293.144531 16.160156 C 285.261719 16.144531 274.507812 19.433594 265.554688 25.875 L 265.34375 26.027344 C 265.34375 26.027344 261.265625 23.582031 254.035156 21.800781 L 253.777344 21.738281 L 253.699219 21.71875 L 253.511719 21.675781 L 253.429688 21.65625 L 253.21875 21.609375 C 249.105469 24.929688 246.140625 30.40625 244.628906 33.730469 C 242.425781 38.578125 239.8125 46.660156 246.171875 53.15625 C 251.84375 58.945312 263.691406 61.25 271.484375 62.726562 C 274.121094 63.222656 282.285156 65.019531 286.945312 65.941406 L 286.984375 65.898438 L 287.007812 65.867188 L 287.039062 65.828125 L 287.070312 65.792969 L 287.09375 65.757812 L 287.125 65.71875 L 287.207031 65.609375 L 287.242188 65.558594 L 287.257812 65.539062 L 287.285156 65.496094 L 287.320312 65.4375 L 287.335938 65.417969 L 287.359375 65.375 L 287.367188 65.363281 L 287.390625 65.3125 L 287.398438 65.300781 L 287.414062 65.261719 L 287.4375 65.199219 L 287.4375 65.191406 L 287.445312 65.160156 L 287.449219 65.152344 L 287.449219 65.128906 C 287.480469 64.355469 286.0625 63.492188 285.195312 61.535156 C 284.25 59.402344 283.867188 57.960938 283.976562 56.324219 C 283.976562 56.324219 288.332031 53.695312 291.949219 49.59375 C 296.027344 44.976562 300.371094 36.058594 301.246094 27.769531 C 302.289062 17.929688 301.753906 16.238281 293.328125 16.164062 Z M 223.175781 1.355469 L 223.097656 1.355469 C 220.941406 1.363281 218.339844 2.941406 215.816406 8.210938 C 213.179688 13.714844 211.386719 19.246094 211.292969 26.023438 C 211.183594 33.488281 212.613281 40.417969 212.613281 40.417969 C 211.195312 42.773438 207.027344 46.433594 205.15625 48.253906 C 205.078125 48.398438 204.984375 48.519531 204.871094 48.617188 C 208.113281 49.492188 212.089844 49.285156 215.644531 49.304688 C 220.800781 49.335938 226.070312 48.355469 229.566406 46.015625 C 236.304688 41.507812 236.914062 35.796875 239.011719 31.144531 C 240.9375 26.863281 242.789062 23.597656 245.449219 20.511719 L 244.941406 20.476562 L 244.839844 20.46875 L 244.449219 20.441406 L 244.3125 20.433594 L 243.980469 20.414062 L 243.828125 20.40625 L 243.535156 20.390625 L 243.378906 20.382812 L 243.113281 20.367188 L 242.957031 20.359375 L 242.71875 20.351562 L 242.566406 20.34375 L 242.351562 20.335938 L 242.207031 20.332031 L 242.011719 20.324219 L 241.878906 20.320312 L 241.707031 20.316406 L 241.585938 20.3125 L 241.429688 20.308594 L 241.324219 20.304688 L 241.242188 20.304688 L 240.910156 20.300781 L 240.714844 20.296875 L 240.566406 20.296875 C 232.300781 9.847656 230.820312 5.800781 226.210938 2.445312 C 225.394531 1.851562 224.351562 1.367188 223.175781 1.355469 Z M 223.175781 1.355469 "/><path style=" stroke:none;fill-rule:evenodd;fill:#eb826d;fill-opacity:1;" d="M 238.511719 60.382812 C 238.511719 60.382812 237.535156 70.058594 231.15625 68.769531 C 223.933594 67.308594 227.570312 58.007812 227.570312 58.007812 C 227.570312 58.007812 232.359375 58.925781 234.484375 54.839844 C 234.484375 54.839844 233.386719 58.117188 238.511719 60.382812 Z M 238.511719 60.382812 "/><path style=" stroke:none;fill-rule:evenodd;fill:#371502;fill-opacity:1;" d="M 234.460938 55.34375 C 234.460938 55.34375 233.097656 59.347656 232.074219 63.953125 C 232.039062 64.121094 231.875 64.222656 231.707031 64.1875 C 231.542969 64.152344 231.4375 63.988281 231.476562 63.820312 C 232.503906 59.179688 233.878906 55.144531 233.878906 55.144531 C 233.933594 54.984375 234.109375 54.898438 234.269531 54.953125 C 234.429688 55.007812 234.515625 55.183594 234.460938 55.34375 Z M 234.460938 55.34375 "/><path style=" stroke:none;fill-rule:evenodd;fill:#371502;fill-opacity:1;" d="M 234.832031 56.339844 C 237.828125 56.777344 240.898438 55.386719 241.34375 53.515625 C 241.789062 51.660156 240.441406 49.050781 236.109375 48.257812 C 231.738281 47.457031 229.410156 49.304688 229.128906 50.820312 C 228.773438 52.714844 230.316406 54.867188 233.09375 55.890625 C 232.261719 56.703125 230.613281 57.789062 227.859375 57.53125 C 224.691406 57.234375 222.488281 55.589844 222.121094 53.757812 C 222.070312 53.507812 221.828125 53.347656 221.578125 53.394531 C 221.328125 53.445312 221.167969 53.6875 221.21875 53.9375 C 221.640625 56.0625 224.101562 58.101562 227.773438 58.449219 C 231.050781 58.753906 232.960938 57.382812 233.886719 56.410156 C 234.144531 57.277344 234.6875 58.101562 235.425781 58.816406 C 236.941406 60.285156 239.28125 61.289062 241.542969 61.253906 C 245.460938 61.191406 246.40625 59.011719 246.40625 59.011719 C 246.511719 58.78125 246.410156 58.507812 246.179688 58.398438 C 245.949219 58.292969 245.675781 58.394531 245.566406 58.625 C 245.566406 58.625 244.738281 60.28125 241.527344 60.332031 C 239.507812 60.363281 237.417969 59.464844 236.066406 58.15625 C 235.503906 57.609375 235.066406 56.992188 234.832031 56.339844 Z M 234.832031 56.339844 "/><path style=" stroke:none;fill-rule:evenodd;fill:#f3e5d6;fill-opacity:1;" d="M 238.015625 152.464844 C 238.015625 152.464844 238.527344 157.699219 238.488281 161.269531 C 238.449219 164.839844 238.792969 168.136719 244.847656 169.703125 C 250.902344 171.265625 258.222656 170.589844 260.324219 168.84375 C 262.425781 167.097656 261.8125 164.945312 261.25 162.257812 C 260.6875 159.570312 260.347656 152.390625 260.347656 152.390625 C 260.347656 152.390625 238.097656 152.835938 238.015625 152.464844 Z M 238.015625 152.464844 "/><path style=" stroke:none;fill-rule:evenodd;fill:#f3e5d6;fill-opacity:1;" d="M 304.132812 152.464844 C 304.132812 152.464844 303.621094 157.699219 303.660156 161.269531 C 303.695312 164.839844 303.355469 168.136719 297.300781 169.703125 C 291.246094 171.265625 283.652344 170.019531 281.550781 168.273438 C 279.449219 166.527344 279.320312 164.019531 279.886719 161.328125 C 280.445312 158.640625 281.800781 152.390625 281.800781 152.390625 C 281.800781 152.390625 304.050781 152.835938 304.132812 152.464844 Z M 304.132812 152.464844 "/><path style=" stroke:none;fill-rule:evenodd;fill:#fa992e;fill-opacity:1;" d="M 216.816406 132.875 C 212.261719 120.976562 212.824219 105.402344 222.035156 90.347656 C 231.246094 75.289062 254.125 63.816406 278.074219 66.605469 C 301.578125 69.339844 316.375 80.824219 323.03125 96.734375 C 329.714844 112.695312 326.839844 134.847656 314.6875 147.398438 C 304.023438 158.414062 287.894531 156.152344 287.894531 156.152344 C 287.894531 156.152344 281.082031 159.191406 275.191406 150.746094 C 275.191406 150.746094 267.605469 157.164062 262.757812 155.144531 C 262.757812 155.144531 257.035156 157.78125 249.875 157.375 C 241.203125 156.878906 224.183594 152.101562 216.816406 132.875 Z M 216.816406 132.875 "/><path style=" stroke:none;fill-rule:evenodd;fill:#f3e5d6;fill-opacity:1;" d="M 245.847656 156.894531 C 243.363281 155.636719 240.101562 153.257812 236.757812 148.777344 C 230.421875 140.277344 229.195312 128.933594 231.453125 120.6875 C 233.964844 111.527344 244.53125 101.519531 254.585938 100.425781 C 254.585938 100.425781 252.5 105.242188 254.253906 109.148438 C 256.007812 113.054688 258.460938 114.347656 260.5 112.292969 C 260.5 112.292969 261.265625 117.902344 267.5 120.792969 C 273.738281 123.679688 276.199219 124.507812 279.257812 122.046875 C 282.3125 119.585938 284.859375 116.503906 285.792969 114.140625 C 285.792969 114.140625 288.34375 115.355469 289.648438 113.726562 C 290.953125 112.097656 292.46875 107.140625 291.402344 103.046875 C 291.402344 103.046875 301.972656 103.652344 309.125 115.074219 C 316.800781 127.335938 311.324219 147.417969 297.925781 155.804688 C 292.246094 156.761719 287.894531 156.152344 287.894531 156.152344 C 287.894531 156.152344 281.082031 159.191406 275.191406 150.746094 C 275.191406 150.746094 267.605469 157.164062 262.757812 155.144531 C 262.757812 155.144531 257.035156 157.78125 249.875 157.375 C 248.675781 157.304688 247.316406 157.15625 245.847656 156.894531 Z M 245.847656 156.894531 "/><path style=" stroke:none;fill-rule:evenodd;fill:#fa992e;fill-opacity:1;" d="M 259.941406 155.828125 C 257.617188 156.523438 253.992188 157.300781 249.890625 157.066406 C 248.703125 157 247.359375 156.851562 245.902344 156.59375 C 245.734375 156.5625 245.574219 156.675781 245.546875 156.84375 C 245.515625 157.007812 245.628906 157.167969 245.796875 157.199219 C 247.277344 157.460938 248.648438 157.613281 249.855469 157.679688 C 254.042969 157.917969 257.742188 157.128906 260.117188 156.417969 C 260.28125 156.371094 260.371094 156.199219 260.324219 156.035156 C 260.277344 155.875 260.105469 155.78125 259.941406 155.828125 Z M 297.875 155.503906 C 292.25 156.449219 287.9375 155.847656 287.9375 155.847656 C 287.878906 155.839844 287.820312 155.847656 287.769531 155.871094 C 287.769531 155.871094 285.046875 157.074219 281.59375 155.769531 C 281.433594 155.707031 281.257812 155.785156 281.195312 155.945312 C 281.136719 156.105469 281.214844 156.28125 281.375 156.34375 C 284.726562 157.613281 287.4375 156.664062 287.9375 156.46875 C 288.566406 156.546875 292.707031 156.996094 297.976562 156.109375 C 298.144531 156.078125 298.257812 155.921875 298.226562 155.753906 C 298.199219 155.585938 298.039062 155.472656 297.875 155.503906 Z M 297.875 155.503906 "/><path style=" stroke:none;fill-rule:evenodd;fill:#c37924;fill-opacity:1;" d="M 289.234375 100.710938 C 289.234375 100.710938 290.230469 101.472656 290.832031 102.6875 C 290.90625 102.839844 291.09375 102.902344 291.246094 102.828125 C 291.398438 102.753906 291.457031 102.566406 291.382812 102.414062 C 290.714844 101.066406 289.605469 100.222656 289.605469 100.222656 C 289.472656 100.117188 289.28125 100.144531 289.175781 100.277344 C 289.074219 100.414062 289.097656 100.605469 289.234375 100.710938 Z M 255.066406 100.058594 C 255.066406 100.058594 256.011719 97.601562 258.449219 95.796875 C 258.585938 95.695312 258.613281 95.503906 258.511719 95.367188 C 258.410156 95.230469 258.21875 95.203125 258.082031 95.300781 C 255.492188 97.222656 254.492188 99.839844 254.492188 99.839844 C 254.433594 100 254.511719 100.175781 254.671875 100.238281 C 254.828125 100.296875 255.007812 100.21875 255.066406 100.058594 Z M 255.066406 100.058594 "/><path style=" stroke:none;fill-rule:evenodd;fill:#371502;fill-opacity:1;" d="M 256.691406 46.152344 C 257.222656 45.894531 257.042969 44.164062 255.394531 43.710938 C 253.496094 43.1875 252.058594 43.175781 250.238281 43.898438 C 249.101562 44.347656 248.886719 45.351562 249.140625 45.628906 C 249.550781 46.078125 250.28125 45.972656 251.984375 45.898438 C 254.757812 45.773438 256.140625 46.417969 256.691406 46.152344 Z M 256.691406 46.152344 "/><path style=" stroke:none;fill-rule:evenodd;fill:#371502;fill-opacity:1;" d="M 222.03125 38.78125 C 221.625 38.355469 222.394531 36.792969 224.097656 36.941406 C 226.058594 37.113281 227.039062 37.753906 228.34375 38.8125 C 229.261719 39.558594 229.046875 40.492188 228.570312 40.753906 C 227.949219 41.089844 227.445312 40.550781 226.105469 39.996094 C 223.921875 39.089844 222.457031 39.222656 222.03125 38.78125 Z M 222.03125 38.78125 "/><path style=" stroke:none;fill-rule:evenodd;fill:#f3e5d6;fill-opacity:1;" d="M 281.671875 48.246094 C 283.394531 48.261719 285.890625 45.648438 288.878906 41.917969 C 290.671875 39.671875 292.855469 35.050781 293.976562 30.699219 C 295.203125 25.933594 293.738281 24.1875 289.953125 24.246094 C 284.710938 24.332031 280.664062 25.464844 276.621094 27.398438 C 272.214844 29.5 270.183594 30.769531 271.75 32.449219 C 272.742188 33.511719 275.40625 37.789062 276.824219 40.359375 C 279.8125 45.773438 279.84375 48.230469 281.671875 48.246094 Z M 281.671875 48.246094 "/><path style=" stroke:none;fill-rule:evenodd;fill:#f3e5d6;fill-opacity:1;" d="M 218.347656 31.546875 C 217.695312 30.667969 217.039062 27.265625 217.144531 23.824219 C 217.3125 18.3125 218.773438 15.449219 220.101562 12.828125 C 221.855469 9.359375 223.515625 8.375 225.167969 10.195312 C 227.144531 12.378906 228.140625 13.65625 230.496094 17.46875 C 232.242188 20.292969 233.367188 21.574219 232.40625 22.234375 C 231.207031 23.058594 228.109375 24.382812 225.03125 26.710938 C 220.097656 30.445312 218.957031 32.367188 218.347656 31.546875 Z M 218.347656 31.546875 "/><path style=" stroke:none;fill-rule:evenodd;fill:#f3e5d6;fill-opacity:1;" d="M 257.789062 39.050781 C 258.046875 37.886719 257.667969 36.132812 255.226562 35.539062 C 253.25 35.058594 251.335938 35.609375 251.066406 37.050781 C 250.800781 38.496094 252.46875 39.53125 253.878906 40.011719 C 255.492188 40.570312 257.488281 40.398438 257.789062 39.050781 Z M 257.789062 39.050781 "/><path style=" stroke:none;fill-rule:evenodd;fill:#f3e5d6;fill-opacity:1;" d="M 224.488281 32.164062 C 224.648438 31.101562 225.570312 29.785156 227.945312 30.175781 C 229.871094 30.496094 231.390625 31.640625 231.144531 32.9375 C 230.898438 34.230469 229.066406 34.484375 227.648438 34.375 C 226.023438 34.25 224.304688 33.386719 224.488281 32.164062 Z M 224.488281 32.164062 "/><g clip-rule="nonzero" clip-path="url(#0d07e88d0b)"><path style=" stroke:none;fill-rule:nonzero;fill:#f3e5d6;fill-opacity:1;" d="M 279.308594 98.488281 C 274.878906 98.488281 272.574219 102 272.574219 102 C 272.574219 102 270.269531 98.488281 265.839844 98.488281 C 261.414062 98.488281 260.605469 102.484375 260.605469 103.871094 C 260.605469 105.257812 260.898438 107.875 266.183594 113.160156 C 272.152344 119.128906 271.925781 118.832031 272.574219 118.902344 C 273.222656 118.832031 272.996094 119.128906 278.964844 113.160156 C 284.25 107.875 284.542969 105.257812 284.542969 103.871094 C 284.542969 102.484375 283.734375 98.488281 279.308594 98.488281 Z M 279.308594 98.488281 "/></g></g></svg>